# xmcd CD database file
#
# Track frame offsets:
#        150
#        7216
#        21658
#        33665
#        60285
#        85521
#        103466
#        116154
#        130364
#        144591
#        173657
#        193443
#        220402
#
# Disc length: 3272 seconds
#
# Revision: 0
# Processed by: cddbd v1.5.2PL0 Copyright (c) Steve Scherf et al.
# Submitted via: CUERipper 2.1.5
#
DISCID=c80cc60d
DTITLE=The Muddy Waters Band feat. B.B. King - Live At Ebbets Field
DYEAR=1973
DGENRE=Blues
TTITLE0=Piano Jam
TTITLE1=Instrumental
TTITLE2=Instrumental with Muddy Intro
TTITLE3=My Sweet Little Baby
TTITLE4=Rock Me
TTITLE5=Can't Get No Grindin' (What's The Matter With The Meal)
TTITLE6=I've Got My Mojo Working
TTITLE7=Forty Days And Forty Nights
TTITLE8=Band Introductions
TTITLE9=I Know You Didn't Want Me
TTITLE10=Thrill Is Gone
TTITLE11=Instrumental
TTITLE12=Caldonia
EXTD=
EXTT0=
EXTT1=
EXTT2=
EXTT3=
EXTT4=
EXTT5=
EXTT6=
EXTT7=
EXTT8=
EXTT9=
EXTT10=
EXTT11=
EXTT12=
PLAYORDER=
